<?xml version="1.0" encoding="UTF-8" standalone="no"?>
<svg
      xmlns:dc="http://purl.org/dc/elements/1.1/"
      xmlns:cc="http://creativecommons.org/ns#"
      xmlns:rdf="http://www.w3.org/1999/02/22-rdf-syntax-ns#"
      xmlns:svg="http://www.w3.org/2000/svg"
      xmlns="http://www.w3.org/2000/svg"
      xmlns:sodipodi="http://sodipodi.sourceforge.net/DTD/sodipodi-0.dtd"
      xmlns:inkscape="http://www.inkscape.org/namespaces/inkscape"
      width="240"
      height="84"
      version="1.1"
      viewBox="0 0 63.5 22.225"
      id="svg937"
      sodipodi:docname="logo_osiptel_gris.svg"
      inkscape:version="0.92.4 (5da689c313, 2019-01-14)">
     <metadata
           id="metadata943">
          <rdf:RDF>
               <cc:Work
                     rdf:about="">
                    <dc:format>image/svg+xml</dc:format>
                    <dc:type
                          rdf:resource="http://purl.org/dc/dcmitype/StillImage" />
                    <dc:title></dc:title>
               </cc:Work>
          </rdf:RDF>
     </metadata>
     <defs
           id="defs941" />
     <sodipodi:namedview
           pagecolor="#ffffff"
           bordercolor="#666666"
           borderopacity="1"
           objecttolerance="10"
           gridtolerance="10"
           guidetolerance="10"
           inkscape:pageopacity="0"
           inkscape:pageshadow="2"
           inkscape:window-width="640"
           inkscape:window-height="480"
           id="namedview939"
           showgrid="false"
           inkscape:zoom="2.6104167"
           inkscape:cx="125.38491"
           inkscape:cy="38.628704"
           inkscape:current-layer="svg937" />
     <g
           transform="translate(0 -274.78)"
           stroke-width=".26458"
           id="g935"
           style="fill:#ffffff">
          <path
                class="st0"
                d="m8.7843 282.78c0 0.60325-0.48683 1.0901-1.0901 1.0901s-1.0901-0.48683-1.0901-1.0901 0.48683-1.0901 1.0901-1.0901 1.0901 0.48683 1.0901 1.0901"
                fill="#dadada"
                id="path899"
                style="fill:#ffffff" />
          <path
                class="st1"
                d="m3.8102 281.06c-2.0902 1.5214 0.097896 3.8603 1.3335 1.8098 0.57944-0.96043 1.3467-1.5505 2.1087-1.8785-0.38365-0.23283-0.85196-0.29633-1.3785-0.35983 0.93927-0.06615 1.7251 0.1905 1.8124 0.20637 1.8865-0.56885 3.7968 0.17992 3.8735 0.22225-0.17462-0.12964-0.89164-0.66939-1.9844-0.98954-1.4552-0.42862-3.5904-0.55562-5.7653 0.98954"
                fill="#b3b2b2"
                id="path901"
                style="fill:#ffffff" />
          <path
                class="st2"
                d="m11.557 281.06c2.0902 1.5214-0.097896 3.8603-1.3335 1.8098-0.57944-0.96043-1.3123-1.5372-2.0717-1.8627-0.1561-0.06615-0.31221-0.12436-0.46831-0.17198-1.8838-0.56886-3.7968 0.17991-3.8735 0.22225 0.17462-0.12965 0.89165-0.6694 1.9844-0.98954 1.4526-0.42598 3.5878-0.55298 5.7626 0.99218"
                fill="#727070"
                id="path903"
                style="fill:#ffffff" />
          <path
                class="st0"
                d="m4.0615 287.15c0.52123-0.30162 1.188-0.12171 1.4896 0.39952s0.12171 1.188-0.39952 1.4896c-0.52123 0.30162-1.188 0.12435-1.4896-0.39952-0.30162-0.52388-0.12435-1.1906 0.39952-1.4896"
                fill="#dadada"
                id="path905"
                style="fill:#ffffff" />
          <path
                class="st1"
                d="m5.0564 292.32c2.3627 1.0478 3.2941-2.0161 0.89958-2.0585-1.1218-0.02116-2.0161-0.39158-2.6802-0.88635-0.010584 0.44979 0.16933 0.88635 0.37835 1.3758-0.52917-0.78052-0.6985-1.5875-0.7276-1.6722-1.4367-1.3494-1.7436-3.3787-1.7436-3.466-0.023812 0.21432-0.13229 1.106 0.13494 2.2119 0.35454 1.4711 1.3097 3.3814 3.7386 4.4953"
                fill="#b3b2b2"
                id="path907"
                style="fill:#ffffff" />
          <path
                class="st2"
                d="m1.1802 285.61c0.27252-2.5718 3.392-1.8441 2.2331 0.25136-0.5424 0.9816-0.67469 1.905-0.57679 2.7278 0.018521 0.16669 0.047625 0.33073 0.087313 0.49213 0.44715 1.9182 2.0532 3.1988 2.1299 3.2438-0.19844-0.08732-1.0239-0.43921-1.8494-1.225-1.0954-1.0478-2.2728-2.831-2.0241-5.4901"
                fill="#727070"
                id="path909"
                style="fill:#ffffff" />
          <path
                class="st0"
                d="m10.208 289.06c-0.52123-0.30162-0.70115-0.96837-0.39952-1.4896 0.30163-0.52123 0.96838-0.70115 1.4896-0.39952 0.52123 0.30162 0.6985 0.96837 0.39952 1.4896-0.30162 0.52123-0.96573 0.6985-1.4896 0.39952"
                fill="#dadada"
                id="path911"
                style="fill:#ffffff" />
          <path
                class="st1"
                d="m14.19 285.61c-0.27252-2.5718-3.392-1.8441-2.2331 0.25136 0.5424 0.9816 0.6694 1.942 0.57415 2.7649 0.39688-0.21431 0.68262-0.59002 1.0028-1.0134-0.4101 0.84666-1.0266 1.397-1.0821 1.4658-0.44979 1.9182-2.0532 3.1988-2.1299 3.2438 0.19844-0.08731 1.0239-0.43656 1.8494-1.225 1.0901-1.0451 2.2675-2.831 2.0188-5.4875"
                fill="#b3b2b2"
                id="path913"
                style="fill:#ffffff" />
          <path
                class="st2"
                d="m10.314 292.32c-2.3627 1.0478-3.2941-2.0161-0.89958-2.0611 1.1218-0.02117 1.987-0.36777 2.6511-0.86254 0.13494-0.10054 0.26194-0.20902 0.381-0.32015 1.4367-1.3467 1.7436-3.3787 1.7436-3.466 0.023812 0.21696 0.13229 1.106-0.13494 2.2119-0.35719 1.4737-1.3123 3.3867-3.7412 4.4979"
                fill="#727070"
                id="path915"
                style="fill:#ffffff" />
          <g
                fill="#dadada"
                id="g933"
                style="fill:#ffffff">
               <path
                     class="st0"
                     d="m39.098 290.01v3.511h-1.6775v-11.401h-0.068791 2.6326c2.6723 0 4.1672 1.5531 4.1672 3.8947 0 2.3574-1.8918 3.9926-4.3074 3.9926h-0.74612zm0-1.5558h0.74612c1.4023 0 2.6696-0.96837 2.6696-2.4394 0-1.4526-0.80169-2.3389-2.5294-2.3389h-0.88635z"
                     id="path917"
                     style="fill:#ffffff" />
               <path
                     class="st0"
                     d="m34.729 281.45h-0.007938c-0.46038 0-0.83608-0.37307-0.84138-0.8308-0.005291-0.46566 0.36777-0.84666 0.83344-0.85195 0.46567 0 0.84667 0.3757 0.84931 0.83343 0.002646 0.22225-0.08202 0.43657-0.24077 0.59532-0.1561 0.16404-0.36512 0.25135-0.59267 0.254z"
                     id="path919"
                     style="fill:#ffffff" />
               <path
                     class="st0"
                     d="m21.111 290.5c-2.4448 0-4.2915-1.7992-4.2915-4.1857 0-2.368 1.8441-4.154 4.2915-4.154s4.2915 1.7859 4.2915 4.154c0 2.3866-1.8468 4.1857-4.2915 4.1857m0-6.7654c-1.4208 0-2.4897 1.1112-2.4897 2.5823 0 1.4658 1.0954 2.6114 2.4897 2.6114 1.4208 0 2.4897-1.1218 2.4897-2.6114 0-1.4737-1.0716-2.5823-2.4897-2.5823"
                     id="path921"
                     style="fill:#ffffff" />
               <path
                     class="st0"
                     d="m29.432 290.5c-1.9235 0-2.9792-1.1218-3.0242-1.1695l-0.079375-0.08731 0.88371-1.2965 0.127 0.13229c0.007938 0.00794 0.84137 0.84932 2.0955 0.84932 0.55827 0 1.1245-0.27782 1.1245-0.80698 0-0.50536-0.67733-0.77788-1.4605-1.0954-1.106-0.44714-2.4844-1.0028-2.4844-2.5321 0-1.397 1.1747-2.3336 2.9263-2.3336 1.7304 0 2.5479 0.85989 2.5823 0.89693l0.071438 0.07673-0.73819 1.3785-0.14288-0.14287c-0.007937-0.0053-0.65881-0.6403-1.7912-0.6403-0.5371 0-1.1086 0.20903-1.1086 0.79111 0 0.48683 0.66675 0.74877 1.4393 1.0557 1.1165 0.44185 2.503 0.99218 2.503 2.54 0 1.4076-1.2012 2.3839-2.9236 2.3839"
                     id="path923"
                     style="fill:#ffffff" />
               <rect
                     class="st0"
                     x="33.872"
                     y="282.34"
                     width="1.7013"
                     height="8.0089"
                     id="rect925"
                     style="fill:#ffffff" />
               <path
                     class="st0"
                     d="m48.699 290.49c-0.03175 0-3.0454 0.23019-3.0454-2.884l0.002646-7.829h1.696v2.3389h1.0874v1.6457h-1.0874v3.6063c0 1.307 0.6694 1.4393 1.3494 1.4393z"
                     id="path927"
                     style="fill:#ffffff" />
               <path
                     class="st0"
                     d="m60.254 287.37c0 1.3811 0.6694 1.4393 1.3494 1.5108l-0.0053 1.6113c-0.03175-0.07144-3.0454 0.23019-3.0454-2.884l0.00529-7.8422h1.696z"
                     id="path929"
                     style="fill:#ffffff" />
               <path
                     class="st0"
                     d="m53.679 290.5c-2.4421 0-4.2148-1.7542-4.2148-4.1698 0-2.4553 1.6404-4.1698 3.9873-4.1698 2.077 0 3.4713 1.5055 3.4713 3.7438 0 0.20373-0.04498 0.635-0.04498 0.65352l-0.01323 0.13494h-5.5748c0.14817 1.6457 1.4129 2.2357 2.4818 2.2357 1.2462 0 2.1643-0.84667 2.1749-0.85461l0.13759-0.12964 0.75671 1.3414-0.08467 0.07938c-0.05027 0.04762-1.2039 1.1351-3.0771 1.1351m-2.323-5.2123h3.7571c-0.09261-1.0266-0.73025-1.6589-1.6933-1.6589-1.0451 0-1.8203 0.62971-2.0637 1.6589"
                     id="path931"
                     style="fill:#ffffff" />
          </g>
     </g>
</svg>
